<?xml version="1.0" standalone="no"?><!DOCTYPE svg PUBLIC "-//W3C//DTD SVG 1.1//EN" "http://www.w3.org/Graphics/SVG/1.1/DTD/svg11.dtd"><svg t="1684825896336" class="icon" viewBox="0 0 1024 1024" version="1.1" xmlns="http://www.w3.org/2000/svg" p-id="14608" xmlns:xlink="http://www.w3.org/1999/xlink" width="32" height="32"><path d="M648.533333 56.888889c-12.325926 0-22.755556 7.585185-25.6 19.911111L496.82963 544.237037c-3.792593 14.222222 4.740741 29.392593 18.962963 33.185185 1.896296 0.948148 4.740741 0.948148 6.637037 0.948148 12.325926 0 22.755556-7.585185 25.6-19.911111L674.133333 91.022222c3.792593-14.222222-4.740741-29.392593-18.962963-33.185185-1.896296-0.948148-4.740741-0.948148-6.637037-0.948148z" fill="#ffffff" p-id="14609"></path><path d="M788.859259 152.651852c-9.481481 0-18.014815 4.740741-23.703703 13.274074L523.377778 585.007407c-7.585185 13.274074-2.844444 29.392593 9.481481 36.977778 3.792593 2.844444 8.533333 3.792593 13.274074 3.792593 9.481481 0 18.014815-4.740741 23.703704-13.274074l241.777778-419.081482c7.585185-13.274074 2.844444-29.392593-9.481482-36.977778-4.740741-2.844444-8.533333-3.792593-13.274074-3.792592z" fill="#ffffff" p-id="14610"></path><path d="M347.97037 349.866667c87.22963 0 158.340741 71.111111 158.340741 158.34074s-71.111111 158.340741-158.340741 158.340741S189.62963 595.437037 189.62963 508.207407s71.111111-158.340741 158.34074-158.34074m0-56.888889C229.451852 292.977778 132.740741 388.740741 132.740741 508.207407c0 118.518519 96.711111 215.22963 215.229629 215.22963s215.22963-96.711111 215.22963-215.22963c0-119.466667-96.711111-215.22963-215.22963-215.229629z" fill="#ffffff" p-id="14611"></path><path d="M711.111111 681.718519c-80.592593 0-146.014815-65.422222-146.014815-146.014815S630.518519 388.740741 711.111111 388.740741s146.014815 65.422222 146.014815 146.014815S791.703704 681.718519 711.111111 681.718519z" fill="#ffffff" p-id="14612"></path><path d="M711.111111 417.185185c65.422222 0 117.57037 53.096296 117.57037 117.570371S776.533333 653.274074 711.111111 653.274074s-117.57037-53.096296-117.57037-117.57037S645.688889 417.185185 711.111111 417.185185m0-56.888889c-96.711111 0-174.459259 78.696296-174.459259 174.45926 0 96.711111 78.696296 174.459259 174.459259 174.459259 96.711111 0 174.459259-78.696296 174.459259-174.459259C886.518519 438.992593 807.822222 360.296296 711.111111 360.296296z" fill="#ffffff" p-id="14613"></path><path d="M512 909.274074c-210.488889 0-386.844444-164.977778-401.066667-374.518518l804.02963 0.948148C898.844444 745.244444 722.488889 909.274074 512 909.274074z" fill="#ffffff" p-id="14614"></path><path d="M880.82963 564.148148C853.333333 744.296296 696.888889 880.82963 512 880.82963S170.666667 744.296296 143.17037 564.148148h737.65926m34.133333-56.888889h-805.925926c-16.118519 0-27.496296 13.274074-26.548148 29.392593C97.659259 760.414815 284.444444 937.718519 512 937.718519s414.340741-177.303704 429.511111-401.066667c0.948148-15.17037-11.377778-29.392593-26.548148-29.392593z" fill="#ffffff" p-id="14615"></path><path d="M618.192593 967.111111H405.807407c-16.118519 0-28.444444-12.325926-28.444444-28.444444v-23.703704c0-16.118519 12.325926-28.444444 28.444444-28.444444h212.385186c16.118519 0 28.444444 12.325926 28.444444 28.444444V938.666667c0 16.118519-13.274074 28.444444-28.444444 28.444444z" fill="#ffffff" p-id="14616"></path></svg>