<?xml version="1.0" standalone="no"?><!DOCTYPE svg PUBLIC "-//W3C//DTD SVG 1.1//EN" "http://www.w3.org/Graphics/SVG/1.1/DTD/svg11.dtd"><svg t="1684824446029" class="icon" viewBox="0 0 1024 1024" version="1.1" xmlns="http://www.w3.org/2000/svg" p-id="12034" xmlns:xlink="http://www.w3.org/1999/xlink" width="32" height="32"><path d="M968.533144 973.924196l-35.854849 0 0-45.325894 35.849845 0c13.819969 0 25.022576-11.202607 25.022576-25.022576 0-139.613462-107.121647-254.68228-243.482175-267.348708l0-43.264034c0-13.819969-11.202607-25.022576-25.022576-25.022576s-25.022576 11.202607-25.022576 25.022576l0 43.264034c-136.36303 12.666428-243.482175 127.735246-243.482175 267.348708 0 13.819969 11.202607 25.022576 25.022576 25.022576l35.849845 0 0 45.325894-35.849845 0c-13.819969 0-25.022576 11.202607-25.022576 25.022576s11.202607 25.022576 25.022576 25.022576l60.379476 0c0.327796 0.007507 0.655591 0.007507 0.983387 0l364.238624 0c0.162647 0.002502 0.327796 0.005005 0.490442 0.005005s0.327796 0 0.490442-0.005005l60.386982 0c13.819969 0 25.022576-11.202607 25.022576-25.022576s-11.205109-25.022576-25.022576-25.022576zm-85.902503 0l-315.176859 0 0-45.325894 315.176859 0 0 45.325894zm-374.622993-95.368544c12.456238-108.715586 105.039769-193.437023 217.035814-193.437023s204.579576 84.721438 217.035814 193.437023l-434.071629 0zm-178.623658-635.070474c-73.523835 0-131.118298 42.060448-131.118298 95.753891 0 53.690941 57.594463 95.748887 131.118298 95.748887 73.523835 0 131.115796-42.057946 131.115796-95.748887 0-53.695946-57.591961-95.753891-131.115796-95.753891zm0 141.455124c-47.778106 0-81.073146-24.084229-81.073146-45.703735 0-21.619506 33.29504-45.708739 81.073146-45.708739 47.775604 0 81.070644 24.089234 81.070644 45.708739 0 21.617003-33.29504 45.703735-81.070644 45.703735zm58.935673 588.988899l-307.830231 0 0-802.143711 497.789116 0 0 416.675934c0 13.819969 11.202607 25.022576 25.022576 25.022576s25.022576-11.202607 25.022576-25.022576l0-441.69851c0-13.819969-11.202607-25.022576-25.022576-25.022576l-11.763113 0 0-96.71726c0-7.151452-3.060261-13.962597-8.407586-18.711882-5.347324-4.746783-12.471252-6.978796-19.572659-6.135536l-511.051081 60.87242c-12.586356 1.498852-22.062405 12.170981-22.062405 24.847418l0 913.056279c0 13.819969 11.202607 25.022576 25.022576 25.022576l332.852807 0c13.819969 0 25.022576-11.202607 25.022576-25.022576s-11.202607-25.022576-25.022576-25.022576zm-307.830231-865.816158l461.003427-54.909541 0 68.539338-461.003427 0 0-13.629797zm206.754038 794.121474c-13.819969 0-25.022576-11.202607-25.022576-25.022576s11.202607-25.022576 25.022576-25.022576l84.278538 0c13.819969 0 25.022576 11.202607 25.022576 25.022576s-11.202607 25.022576-25.022576 25.022576l-84.278538 0z" p-id="12035" fill="#ffffff"></path></svg>